<svg width="279" height="81" viewBox="0 0 279 81" fill="none" xmlns="http://www.w3.org/2000/svg">
<g clip-path="url(#clip0_208_838)">
<path d="M100.993 40.3984C100.993 29.6841 96.737 19.4085 89.1608 11.8324C81.5847 4.25625 71.3092 1.40501e-06 60.595 0C49.8807 -1.40501e-06 39.6053 4.25625 32.0291 11.8324C24.4529 19.4085 20.1967 29.6841 20.1967 40.3984H32.8213C37.0047 40.3984 40.2673 36.8926 41.7996 32.9998C42.8056 30.444 44.3322 28.0953 46.3119 26.1153C50.1 22.3273 55.2378 20.1992 60.595 20.1992C65.9521 20.1992 71.0899 22.3273 74.878 26.1153C78.6661 29.9034 80.794 35.0412 80.794 40.3984H100.993Z" fill="url(#paint0_linear_208_838)"/>
<path d="M77.7212 55.8605C79.7514 50.9592 80.7965 45.7059 80.7965 40.4009H100.993C100.993 62.7122 82.9064 80.799 60.5951 80.799C57.101 80.799 53.7103 80.3555 50.4769 79.5216C52.3064 79.0503 54.1046 78.45 55.8578 77.7239C60.7591 75.6937 65.2126 72.7181 68.964 68.9668C72.7153 65.2154 75.6912 60.7619 77.7212 55.8605Z" fill="#BD1C83"/>
<path d="M0 40.3958C-7.58953e-07 45.7011 1.04493 50.9543 3.07513 55.8557C5.10535 60.7571 8.08105 65.2106 11.8324 68.9619C15.5837 72.713 20.0372 75.6889 24.9385 77.7191C29.8398 79.7494 35.0931 80.7942 40.3984 80.7942C45.7034 80.7942 50.9566 79.7494 55.858 77.7191C60.7594 75.6889 65.2129 72.713 68.9642 68.9619C72.7156 65.2106 75.6912 60.7571 77.7214 55.8557C79.7517 50.9543 80.7967 45.7011 80.7967 40.3958H68.172C63.9886 40.3958 60.7261 43.9016 59.1937 47.7941C59.1503 47.9051 59.1055 48.0155 59.0599 48.1259C58.0448 50.5765 56.557 52.8033 54.6812 54.6789C52.8056 56.5544 50.5788 58.0425 48.1282 59.0576C45.6776 60.0727 43.051 60.5951 40.3984 60.5951C37.7457 60.5951 35.1191 60.0727 32.6685 59.0576C30.2177 58.0425 27.9911 56.5544 26.1153 54.6789C24.2397 52.8033 22.7518 50.5765 21.7367 48.1259C20.7216 45.6751 20.1992 43.0485 20.1992 40.3958H0Z" fill="url(#paint1_linear_208_838)"/>
<path d="M0.00390625 40.3984C0.00390625 18.0869 18.0908 0 40.402 0C43.8953 0 47.285 0.443357 50.5181 1.27691C43.5807 3.06404 37.1812 6.68072 32.0292 11.8324C24.4531 19.4085 20.1969 29.6841 20.1969 40.3984H0.00390625Z" fill="#F18B33"/>
<path d="M121.189 28.1575V37.6435H125.473C125.858 37.0088 126.164 36.3742 126.391 35.7395C126.617 35.0822 126.799 34.4362 126.935 33.8015H128.363V43.3215H126.935C126.799 42.6868 126.606 42.0522 126.357 41.4175C126.13 40.7602 125.835 40.1142 125.473 39.4795H121.189V50.4615H129.655C130.38 49.4415 130.969 48.4442 131.423 47.4695C131.899 46.4722 132.341 45.4635 132.749 44.4435H134.517L133.089 52.3995H112.451V51.1415L115.341 50.4955V28.1235L112.451 27.4775V26.2195H133.259L133.905 33.6995H132.477C132.159 32.8155 131.785 31.8975 131.355 30.9455C130.947 29.9708 130.448 29.0415 129.859 28.1575H121.189ZM141.672 52.7395C140.267 52.7395 139.167 52.3882 138.374 51.6855C137.581 50.9828 137.184 49.9968 137.184 48.7275C137.184 47.0275 137.977 45.6675 139.564 44.6475C141.173 43.6275 143.701 42.8795 147.146 42.4035V39.9215C147.146 39.1508 147.112 38.5162 147.044 38.0175C146.976 37.4962 146.863 37.0882 146.704 36.7935C146.568 36.4988 146.364 36.2948 146.092 36.1815C145.82 36.0682 145.48 36.0115 145.072 36.0115C144.211 36.0115 143.531 36.2155 143.032 36.6235C142.556 37.0315 142.318 37.5982 142.318 38.3235C142.318 38.5728 142.341 38.8222 142.386 39.0715C142.431 39.3208 142.454 39.5702 142.454 39.8195C142.454 40.4768 142.227 41.0208 141.774 41.4515C141.321 41.8822 140.765 42.0975 140.108 42.0975C139.451 42.0975 138.907 41.8822 138.476 41.4515C138.068 41.0208 137.864 40.4655 137.864 39.7855C137.864 39.0602 138.091 38.3462 138.544 37.6435C139.02 36.9408 139.689 36.3062 140.55 35.7395C141.411 35.1728 142.386 34.7535 143.474 34.4815C144.585 34.1868 145.752 34.0395 146.976 34.0395C148.2 34.0395 149.186 34.1868 149.934 34.4815C150.682 34.7535 151.249 35.1728 151.634 35.7395C151.906 36.1702 152.099 36.7255 152.212 37.4055C152.348 38.0628 152.416 39.0262 152.416 40.2955V47.2995C152.416 48.3195 152.518 49.0562 152.722 49.5095C152.926 49.9402 153.255 50.1555 153.708 50.1555C154.229 50.1555 154.728 49.8835 155.204 49.3395L155.986 50.4615C154.558 51.9802 152.903 52.7395 151.022 52.7395C149.911 52.7395 149.073 52.5242 148.506 52.0935C147.939 51.6402 147.565 50.9602 147.384 50.0535H147.248C145.593 51.8442 143.735 52.7395 141.672 52.7395ZM144.8 49.5435C145.752 49.5435 146.534 49.2148 147.146 48.5575V44.0015C146.33 44.1602 145.639 44.3415 145.072 44.5455C144.528 44.7268 144.086 44.9422 143.746 45.1915C143.429 45.4408 143.202 45.7468 143.066 46.1095C142.93 46.4495 142.862 46.8575 142.862 47.3335C142.862 48.8068 143.508 49.5435 144.8 49.5435ZM164.995 34.0395C165.856 34.0395 166.695 34.0962 167.511 34.2095C168.327 34.3002 168.984 34.4362 169.483 34.6175V39.3435H168.157C167.839 36.9408 166.706 35.7395 164.757 35.7395C163.963 35.7395 163.329 35.9322 162.853 36.3175C162.399 36.6802 162.173 37.1675 162.173 37.7795C162.173 38.3688 162.377 38.8562 162.785 39.2415C163.193 39.6042 163.691 39.9555 164.281 40.2955C164.893 40.6128 165.55 40.9415 166.253 41.2815C166.978 41.5988 167.635 42.0068 168.225 42.5055C168.837 42.9815 169.347 43.5708 169.755 44.2735C170.163 44.9762 170.367 45.8602 170.367 46.9255C170.367 48.7615 169.721 50.1895 168.429 51.2095C167.137 52.2295 165.323 52.7395 162.989 52.7395C162.127 52.7395 161.209 52.6715 160.235 52.5355C159.26 52.4222 158.41 52.2522 157.685 52.0255L157.481 46.4835H158.943C159.056 47.9795 159.441 49.1128 160.099 49.8835C160.779 50.6542 161.708 51.0395 162.887 51.0395C163.748 51.0395 164.439 50.8128 164.961 50.3595C165.505 49.9062 165.777 49.3168 165.777 48.5915C165.777 47.9795 165.573 47.4695 165.165 47.0615C164.757 46.6308 164.247 46.2455 163.635 45.9055C163.023 45.5655 162.354 45.2255 161.629 44.8855C160.926 44.5228 160.269 44.1035 159.657 43.6275C159.045 43.1288 158.535 42.5395 158.127 41.8595C157.719 41.1795 157.515 40.3182 157.515 39.2755C157.515 35.7848 160.008 34.0395 164.995 34.0395ZM184.233 46.5855L187.667 38.2555C187.781 37.9835 187.86 37.7568 187.905 37.5755C187.951 37.3942 187.973 37.2242 187.973 37.0655C187.973 36.1588 187.067 35.6602 185.253 35.5695V34.3795H193.447V35.5695C192.813 35.6828 192.291 35.8075 191.883 35.9435C191.498 36.0795 191.169 36.2495 190.897 36.4535C190.648 36.6575 190.433 36.9068 190.251 37.2015C190.07 37.4962 189.889 37.8588 189.707 38.2895L181.853 57.1935C181.241 58.6668 180.505 59.7208 179.643 60.3555C178.782 60.9448 177.66 61.2395 176.277 61.2395C175.144 61.2395 174.192 60.9902 173.421 60.4915C172.651 60.0155 172.265 59.2902 172.265 58.3155C172.265 57.6582 172.481 57.1368 172.911 56.7515C173.342 56.3662 173.852 56.1735 174.441 56.1735C174.963 56.1735 175.416 56.3095 175.801 56.5815C176.187 56.8762 176.47 57.3182 176.651 57.9075C176.833 58.4515 176.991 58.8028 177.127 58.9615C177.263 59.1202 177.49 59.1995 177.807 59.1995C178.193 59.1995 178.578 58.9955 178.963 58.5875C179.371 58.2022 179.7 57.6582 179.949 56.9555L181.309 53.3515L174.033 36.9295C173.852 36.4988 173.569 36.1928 173.183 36.0115C172.798 35.8075 172.175 35.6602 171.313 35.5695V34.3795H182.397V35.5695C181.559 35.6375 180.947 35.7508 180.561 35.9095C180.176 36.0455 179.983 36.2948 179.983 36.6575C179.983 36.8842 180.029 37.0882 180.119 37.2695L184.063 46.5855H184.233ZM196.59 28.1235L193.598 27.4775V26.2195H203.9L210.972 43.7635H211.176L218.554 26.2195H227.292V27.4775L224.436 28.1575V50.4275L227.292 51.1415V52.3995H215.698V51.1415L218.588 50.4275V32.2035H218.452L209.918 52.7395H208.286L199.072 31.2855H198.936V50.4955L201.928 51.1415V52.3995H193.564V51.1415L196.59 50.4955V28.1235ZM234.242 52.7395C232.837 52.7395 231.737 52.3882 230.944 51.6855C230.151 50.9828 229.754 49.9968 229.754 48.7275C229.754 47.0275 230.547 45.6675 232.134 44.6475C233.743 43.6275 236.271 42.8795 239.716 42.4035V39.9215C239.716 39.1508 239.682 38.5162 239.614 38.0175C239.546 37.4962 239.433 37.0882 239.274 36.7935C239.138 36.4988 238.934 36.2948 238.662 36.1815C238.39 36.0682 238.05 36.0115 237.642 36.0115C236.781 36.0115 236.101 36.2155 235.602 36.6235C235.126 37.0315 234.888 37.5982 234.888 38.3235C234.888 38.5728 234.911 38.8222 234.956 39.0715C235.001 39.3208 235.024 39.5702 235.024 39.8195C235.024 40.4768 234.797 41.0208 234.344 41.4515C233.891 41.8822 233.335 42.0975 232.678 42.0975C232.021 42.0975 231.477 41.8822 231.046 41.4515C230.638 41.0208 230.434 40.4655 230.434 39.7855C230.434 39.0602 230.661 38.3462 231.114 37.6435C231.59 36.9408 232.259 36.3062 233.12 35.7395C233.981 35.1728 234.956 34.7535 236.044 34.4815C237.155 34.1868 238.322 34.0395 239.546 34.0395C240.77 34.0395 241.756 34.1868 242.504 34.4815C243.252 34.7535 243.819 35.1728 244.204 35.7395C244.476 36.1702 244.669 36.7255 244.782 37.4055C244.918 38.0628 244.986 39.0262 244.986 40.2955V47.2995C244.986 48.3195 245.088 49.0562 245.292 49.5095C245.496 49.9402 245.825 50.1555 246.278 50.1555C246.799 50.1555 247.298 49.8835 247.774 49.3395L248.556 50.4615C247.128 51.9802 245.473 52.7395 243.592 52.7395C242.481 52.7395 241.643 52.5242 241.076 52.0935C240.509 51.6402 240.135 50.9602 239.954 50.0535H239.818C238.163 51.8442 236.305 52.7395 234.242 52.7395ZM237.37 49.5435C238.322 49.5435 239.104 49.2148 239.716 48.5575V44.0015C238.9 44.1602 238.209 44.3415 237.642 44.5455C237.098 44.7268 236.656 44.9422 236.316 45.1915C235.999 45.4408 235.772 45.7468 235.636 46.1095C235.5 46.4495 235.432 46.8575 235.432 47.3335C235.432 48.8068 236.078 49.5435 237.37 49.5435ZM261.543 51.2095V52.3995H249.269V51.2095L251.819 50.5295V37.4395L249.235 36.4875V35.6715L256.205 34.0395H256.919V37.1335C258.687 35.0482 260.398 34.0055 262.053 34.0055C262.914 34.0055 263.617 34.2548 264.161 34.7535C264.705 35.2295 264.977 35.8302 264.977 36.5555C264.977 37.1675 264.784 37.7228 264.399 38.2215C264.013 38.6975 263.481 38.9355 262.801 38.9355C262.483 38.9355 262.2 38.8788 261.951 38.7655C261.701 38.6522 261.452 38.4935 261.203 38.2895C260.885 38.0402 260.602 37.8475 260.353 37.7115C260.103 37.5528 259.854 37.4735 259.605 37.4735C259.423 37.4735 259.163 37.5302 258.823 37.6435C258.505 37.7568 258.188 37.9835 257.871 38.3235C257.576 38.6408 257.383 38.9242 257.293 39.1735C257.202 39.4002 257.134 39.6155 257.089 39.8195V50.5295L261.543 51.2095ZM273.21 52.7395C272.53 52.7395 271.872 52.6602 271.238 52.5015C270.603 52.3428 270.07 52.1048 269.64 51.7875C269.118 51.4022 268.767 50.8922 268.586 50.2575C268.427 49.6228 268.348 48.8408 268.348 47.9115V36.0795H265.934L265.73 35.0255L272.564 29.8235L273.618 29.9935V34.3795H278.888L278.378 36.0795H273.618V46.7555C273.618 47.5942 273.64 48.1835 273.686 48.5235C273.731 48.8635 273.822 49.1355 273.958 49.3395C274.343 49.9742 274.944 50.2915 275.76 50.2915C276.145 50.2915 276.508 50.2235 276.848 50.0875C277.21 49.9515 277.55 49.7022 277.868 49.3395L278.65 50.4615C278.06 51.2095 277.29 51.7762 276.338 52.1615C275.408 52.5468 274.366 52.7395 273.21 52.7395Z" fill="#8800EB"/>
</g>
<defs>
<linearGradient id="paint0_linear_208_838" x1="100.993" y1="20.1992" x2="20.1967" y2="20.1992" gradientUnits="userSpaceOnUse">
<stop stop-color="#F7863F"/>
<stop offset="1" stop-color="#8E258F"/>
</linearGradient>
<linearGradient id="paint1_linear_208_838" x1="2.6488e-06" y1="60.5951" x2="80.7967" y2="60.5951" gradientUnits="userSpaceOnUse">
<stop stop-color="#ED2388"/>
<stop offset="1" stop-color="#F06664"/>
</linearGradient>
<clipPath id="clip0_208_838">
<rect width="278.993" height="80.799" fill="white"/>
</clipPath>
</defs>
</svg>
