<svg width="27" height="27" viewBox="0 0 27 27" fill="none" xmlns="http://www.w3.org/2000/svg">
<circle cx="13.5" cy="13.5" r="13.5" fill="#8800EB" fill-opacity="0.13"/>
<path d="M21 13.4002C21 11.7027 20.3257 10.0748 19.1254 8.87456C17.9251 7.6743 16.2972 7 14.5998 7C12.9024 7 11.2745 7.6743 10.0742 8.87456C8.87398 10.0748 8.19968 11.7027 8.19968 13.4002H10.1998C10.8625 13.4002 11.3794 12.8447 11.6221 12.228C11.7815 11.8231 12.0234 11.451 12.337 11.1373C12.9371 10.5372 13.7511 10.2001 14.5998 10.2001C15.4485 10.2001 16.2625 10.5372 16.8626 11.1373C17.4628 11.7375 17.7999 12.5514 17.7999 13.4002H21Z" fill="url(#paint0_linear_272_441)"/>
<path d="M17.3131 15.8498C17.6347 15.0733 17.8003 14.241 17.8003 13.4006H21C21 16.9353 18.1345 19.8007 14.5999 19.8007C14.0463 19.8007 13.5091 19.7304 12.9969 19.5983C13.2867 19.5236 13.5716 19.4285 13.8493 19.3135C14.6258 18.9919 15.3314 18.5205 15.9257 17.9262C16.52 17.3318 16.9915 16.6263 17.3131 15.8498Z" fill="#BD1C83"/>
<path d="M5 13.3997C5 14.2402 5.16554 15.0725 5.48718 15.849C5.80882 16.6255 6.28025 17.3311 6.87456 17.9254C7.46887 18.5196 8.17442 18.9911 8.95092 19.3127C9.72741 19.6344 10.5597 19.7999 11.4002 19.7999C12.2406 19.7999 13.0729 19.6344 13.8494 19.3127C14.6259 18.9911 15.3314 18.5196 15.9257 17.9254C16.52 17.3311 16.9915 16.6255 17.3131 15.849C17.6347 15.0725 17.8003 14.2402 17.8003 13.3997H15.8002C15.1375 13.3997 14.6206 13.9552 14.3778 14.5718C14.3709 14.5894 14.3638 14.6069 14.3566 14.6244C14.1958 15.0126 13.9601 15.3654 13.6629 15.6626C13.3658 15.9597 13.013 16.1954 12.6248 16.3563C12.2365 16.5171 11.8204 16.5998 11.4002 16.5998C10.9799 16.5998 10.5638 16.5171 10.1755 16.3563C9.78728 16.1954 9.43452 15.9597 9.13735 15.6626C8.8402 15.3654 8.60448 15.0126 8.44367 14.6244C8.28284 14.2361 8.20007 13.82 8.20007 13.3997H5Z" fill="url(#paint1_linear_272_441)"/>
<path d="M5.00078 13.4002C5.00078 9.86543 7.86621 7 11.4009 7C11.9543 7 12.4913 7.07024 13.0035 7.2023C11.9045 7.48542 10.8906 8.0584 10.0744 8.87456C8.87417 10.0748 8.19988 11.7027 8.19988 13.4002H5.00078Z" fill="#F18B33"/>
<defs>
<linearGradient id="paint0_linear_272_441" x1="21" y1="10.2001" x2="8.19968" y2="10.2001" gradientUnits="userSpaceOnUse">
<stop stop-color="#F7863F"/>
<stop offset="1" stop-color="#8E258F"/>
</linearGradient>
<linearGradient id="paint1_linear_272_441" x1="5" y1="16.5998" x2="17.8003" y2="16.5998" gradientUnits="userSpaceOnUse">
<stop stop-color="#ED2388"/>
<stop offset="1" stop-color="#F06664"/>
</linearGradient>
</defs>
</svg>
